<svg xmlns="http://www.w3.org/2000/svg" version="1.1" xmlns:xlink="http://www.w3.org/1999/xlink" xmlns:svgjs="http://svgjs.dev/svgjs" width="2000" height="1247" viewBox="0 0 2000 1247"><g transform="matrix(1,0,0,1,-1.2121212121212466,0.504858299595071)"><svg viewBox="0 0 396 247" data-background-color="#ffffff" preserveAspectRatio="xMidYMid meet" height="1247" width="2000" xmlns="http://www.w3.org/2000/svg" xmlns:xlink="http://www.w3.org/1999/xlink"><g id="tight-bounds" transform="matrix(1,0,0,1,0.2400000000000091,-0.09999999999999432)"><svg viewBox="0 0 395.52 247.2" height="247.2" width="395.52"><g><svg></svg></g><g><svg viewBox="0 0 395.52 247.2" height="247.2" width="395.52"><g transform="matrix(1,0,0,1,75.54432,96.65008104849278)"><svg viewBox="0 0 244.43135999999998 53.89983790301442" height="53.89983790301442" width="244.43135999999998"><g><svg viewBox="0 0 244.43135999999998 53.89983790301442" height="53.89983790301442" width="244.43135999999998"><g><svg viewBox="0 0 244.43135999999998 53.89983790301442" height="53.89983790301442" width="244.43135999999998"><g><svg viewBox="0 0 244.43135999999998 53.89983790301442" height="53.89983790301442" width="244.43135999999998"><g id="textblocktransform"><svg viewBox="0 0 244.43135999999998 53.89983790301442" height="53.89983790301442" width="244.43135999999998" id="textblock"><g><svg viewBox="0 0 244.43135999999998 53.89983790301442" height="53.89983790301442" width="244.43135999999998"><g transform="matrix(1,0,0,1,0,0)"><svg width="244.43135999999998" viewBox="0.45 -33.3 152.59 33.65" height="53.89983790301442" data-palette-color="#8d021f"><path d="M14.9-0.5L14.9-0.5 15.15-0.5 15.15 0 8.05 0 8.05-0.5 8.3-0.5Q8.7-0.5 9-0.8 9.3-1.1 9.53-1.5 9.75-1.9 9.85-2.38 9.95-2.85 9.95-3.25L9.95-3.25 9.95-31.15 4.15-31.15Q3.35-31.15 2.75-30.8 2.15-30.45 1.75-29.93 1.35-29.4 1.15-28.78 0.95-28.15 0.95-27.55L0.95-27.55 0.45-27.55 0.45-33 22.9-33 22.9-27.55 22.4-27.55Q22.4-28.15 22.2-28.78 22-29.4 21.6-29.93 21.2-30.45 20.6-30.8 20-31.15 19.2-31.15L19.2-31.15 13.3-31.15 13.3-3.25Q13.3-2.85 13.4-2.38 13.5-1.9 13.73-1.5 13.95-1.1 14.23-0.8 14.5-0.5 14.9-0.5ZM41.6-10.1L24.25-10.1Q24.45-8.35 25.1-6.78 25.75-5.2 26.82-4 27.9-2.8 29.45-2.08 31-1.35 33.05-1.35L33.05-1.35Q34.15-1.35 35.37-1.68 36.6-2 37.65-2.6 38.7-3.2 39.52-4.08 40.35-4.95 40.65-6.05L40.65-6.05 41.1-6.05 41.1-2.3Q40.8-2.3 40.42-2.1 40.05-1.9 39.55-1.6L39.55-1.6Q38.55-1 36.85-0.33 35.15 0.35 32.35 0.35L32.35 0.35Q30.1 0.35 28.07-0.3 26.05-0.95 24.5-2.3 22.95-3.65 22.02-5.75 21.1-7.85 21.1-10.75L21.1-10.75Q21.1-12.6 21.72-14.5 22.35-16.4 23.62-17.93 24.9-19.45 26.9-20.4 28.9-21.35 31.7-21.35L31.7-21.35Q34.2-21.35 36.07-20.5 37.95-19.65 39.17-18.15 40.4-16.65 41-14.6 41.6-12.55 41.6-10.1L41.6-10.1ZM31.5-19.7L31.5-19.7Q29.75-19.7 28.47-19 27.2-18.3 26.3-17.2 25.4-16.1 24.9-14.7 24.4-13.3 24.25-11.9L24.25-11.9 38.5-11.9Q38.45-13.35 37.97-14.75 37.5-16.15 36.65-17.25 35.8-18.35 34.5-19.03 33.2-19.7 31.5-19.7ZM64.2-5.7L64.2-1.8Q63.8-1.8 63.45-1.63 63.1-1.45 62.65-1.2L62.65-1.2Q61.8-0.7 60.5-0.18 59.2 0.35 57.1 0.35L57.1 0.35Q54.55 0.35 52.37-0.48 50.2-1.3 48.62-2.78 47.05-4.25 46.17-6.23 45.3-8.2 45.3-10.5L45.3-10.5Q45.3-12.65 46.07-14.6 46.85-16.55 48.3-18.05 49.75-19.55 51.87-20.45 54-21.35 56.7-21.35L56.7-21.35Q58.55-21.35 59.7-20.93 60.85-20.5 61.65-20.1L61.65-20.1Q62.1-19.85 62.52-19.7 62.95-19.55 63.4-19.55L63.4-19.55 63.4-15.75 62.9-15.75Q62.65-16.7 62-17.43 61.35-18.15 60.5-18.65 59.65-19.15 58.65-19.4 57.65-19.65 56.7-19.65L56.7-19.65Q54.65-19.65 53.1-18.93 51.55-18.2 50.55-17.03 49.55-15.85 49.05-14.35 48.55-12.85 48.55-11.25L48.55-11.25Q48.55-9.4 49.15-7.63 49.75-5.85 50.87-4.45 52-3.05 53.6-2.2 55.2-1.35 57.2-1.35L57.2-1.35Q58.6-1.35 59.77-1.75 60.95-2.15 61.77-2.8 62.6-3.45 63.1-4.23 63.6-5 63.7-5.7L63.7-5.7 64.2-5.7ZM87.64-12.9L87.64-3.25Q87.64-2.85 87.74-2.38 87.84-1.9 88.07-1.5 88.29-1.1 88.57-0.8 88.84-0.5 89.24-0.5L89.24-0.5 89.24 0 82.79 0 82.79-0.5Q83.14-0.5 83.44-0.8 83.74-1.1 83.97-1.5 84.19-1.9 84.29-2.38 84.39-2.85 84.39-3.25L84.39-3.25 84.39-12.55Q84.39-14.35 83.89-15.7 83.39-17.05 82.54-17.95 81.69-18.85 80.62-19.28 79.54-19.7 78.44-19.7L78.44-19.7Q77.34-19.7 76.27-19.28 75.19-18.85 74.37-18.1 73.54-17.35 73.02-16.28 72.49-15.2 72.49-13.9L72.49-13.9 72.49-3.25Q72.49-2.85 72.59-2.38 72.69-1.9 72.92-1.5 73.14-1.1 73.42-0.8 73.69-0.5 74.09-0.5L74.09-0.5 74.09 0 67.59 0 67.59-0.5Q67.94-0.5 68.24-0.8 68.54-1.1 68.77-1.5 68.99-1.9 69.09-2.38 69.19-2.85 69.19-3.25L69.19-3.25 69.19-28.8Q69.19-29.65 68.94-30.4 68.69-31.15 67.49-31.2L67.49-31.2 67.49-31.7 72.49-33.25 72.49-18.8Q72.84-19.2 73.39-19.68 73.94-20.15 74.72-20.58 75.49-21 76.52-21.28 77.54-21.55 78.94-21.55L78.94-21.55Q81.29-21.55 82.94-20.75 84.59-19.95 85.64-18.68 86.69-17.4 87.17-15.88 87.64-14.35 87.64-12.9L87.64-12.9ZM123.89-33L123.89-32.5Q122.89-32.5 122.19-31.65 121.49-30.8 121.24-29.8L121.24-29.8 112.14 0.2 104.34-24.4 96.54 0.25 87.39-29.75Q87.14-30.7 86.52-31.6 85.89-32.5 85.09-32.5L85.09-32.5 85.09-33 92.19-33 92.19-32.5Q91.54-32.5 91.12-31.98 90.69-31.45 90.69-30.65L90.69-30.65Q90.69-30.4 90.79-30L90.79-30 97.29-8.8 105.24-33.3 112.89-8.85 119.49-30Q119.49-30.1 119.57-30.43 119.64-30.75 119.64-30.95L119.64-30.95Q119.64-31.65 119.24-32.08 118.84-32.5 118.44-32.5L118.44-32.5 118.44-33 123.89-33ZM130.34 0L123.84 0 123.84-0.5Q124.24-0.5 124.54-0.8 124.84-1.1 125.04-1.5 125.24-1.9 125.34-2.38 125.44-2.85 125.44-3.25L125.44-3.25 125.44-17.1Q125.44-17.95 125.19-18.73 124.94-19.5 123.74-19.55L123.74-19.55 123.74-20 128.74-21.6 128.74-3.25Q128.74-2.85 128.84-2.38 128.94-1.9 129.14-1.5 129.34-1.1 129.64-0.8 129.94-0.5 130.34-0.5L130.34-0.5 130.34 0ZM124.09-26.4L124.09-26.4Q124.09-27.4 124.76-28.1 125.44-28.8 126.44-28.8L126.44-28.8Q127.44-28.8 128.14-28.1 128.84-27.4 128.84-26.4L128.84-26.4Q128.84-25.4 128.14-24.75 127.44-24.1 126.44-24.1L126.44-24.1Q125.44-24.1 124.76-24.75 124.09-25.4 124.09-26.4ZM153.04 0L134.09 0 147.79-19.25 139.59-19.25Q138.74-19.25 138.04-18.9 137.34-18.55 136.86-18 136.39-17.45 136.14-16.82 135.89-16.2 135.89-15.65L135.89-15.65 135.39-15.65 135.39-21 153.04-21 139.34-1.8 148.64-1.8Q149.74-1.8 150.49-2.15 151.24-2.5 151.71-3.03 152.19-3.55 152.39-4.2 152.59-4.85 152.59-5.4L152.59-5.4 153.04-5.4 153.04 0Z" opacity="1" transform="matrix(1,0,0,1,0,0)" fill="#8d021f" class="wordmark-text-0" data-fill-palette-color="primary" id="text-0"></path></svg></g></svg></g></svg></g></svg></g></svg></g></svg></g></svg></g><path d="M194.079 90.65L194.079 30.827 8.534 30.827 8.534 216.373 194.079 216.373 194.079 156.55 189.218 156.55 189.218 211.512 13.394 211.512 13.394 35.688 189.218 35.688 189.218 90.65Z" fill="#8d021f" stroke="transparent" data-fill-palette-color="tertiary"></path></svg></g><defs></defs></svg><rect width="395.52" height="247.2" fill="none" stroke="none" visibility="hidden"></rect></g></svg></g></svg>